<?xml version="1.0" encoding="UTF-8"?>
<svg id="Layer_1" xmlns="http://www.w3.org/2000/svg" version="1.1" viewBox="0 0 800 800">
  <defs>
    <style>
      .st0 {
        fill: #5883b4;
      }
    </style>
  </defs>
  <path class="st0" d="M434.51,630.89l-1.85-7.67c-.62-2.58-4.43-2.29-4.59.36-1.79,28.41,12.45,48.69,38.87,64.68,10.78,6.52,18.5,17.32,20.84,29.7,1.25,6.6.93,13.12-2.27,18.13-14.29,24.64-62.63,60.38-91.55,60.77-17.12.25-23.7-17.35-34.59-24.84-20.55-14.01-71.01-33.16-59.36-61.59,6.98-17.08,80.73-28,71.18-84.34-.51-3-4.33-4.02-6.31-1.72-34.09,39.56-43.08,66.01-107.06,83.28-61.88,16.75-113.27-12.54-124.36-75.75-8.8-50.19,57.59-107.89,88.68-75.09,19.62,20.78-35.23,74.65,13.99,87.46,33.74,8.82,52.78-22.63,76.88-40.01,2.97-2.14,2.93-6.57-.04-8.72-3.57-2.59-7.94-5.43-9.85-7.04-7.07-5.96-23.53-5.09-14.57-27.15,8.67-21.27,51.34-8.51,39.21-22.69-24.52-16.39-31.09-38.17-57.21-55.95-42.48-28.84-97.61-33.48-140.25.1-32.3,25.46-.54,53.52-31.28,66.19-72.51,29.9-141.32-91.69-67.01-161.01,62.96-58.72,172.05-62.33,237.68-9.26,25.38,20.54,74.18,82.87,84.97,112.48,3.01,8.26,4.4,20.17,9.97,27.47h0c2.06,4.97,9.51,3.15,9.05-2.21-.87-10-1.87-19.56-2.4-22.39-15.14-80.63-107.16-145.22-115.63-236.2-7.72-82.56,106.15-172.5,142.78-241.8,14.74-16.83,40.74-18.09,52.73,1.02,5.35,8.61,2.27,19.09,2.08,29.22-.06,2.49.11,4.97.55,7.37,3.84,19.61,11.67,32.46,20.98,43.62,11.7,13.96,23.31,29.32,36.45,42.32,2.8,2.61,5.72,5.2,8.7,7.81,23.16,21.49,49.45,76.03,48.57,110.81-1.31,54.36-28.51,83.81-55.31,124.14-2.36,3.55-5.02,4.78-5.29,5.33l-3.71,2.7c-22.07,13.66-39.1,35.42-54.53,55.76-11.92,15.67-16.54,17.5-19.34,35.44l-.41,14.97c-.04,1.41.15,2.82.57,4.18h0c.57,1.87.98,3.77,1.34,5.69,1.29,6.9,3.91,6.92,7.89.03l8.09-17.97c11.64-25.47,42.37-68.87,62.44-86.19,1.51-1.3,6.09-4.99,7.93-5.76h0s.07-.03.1-.05c2.48-1.49.61-.31,1.47-.91,78.86-55.04,229.79-62.06,271.89,40.14,17.75,43.08,7.83,103.84-34.45,129.59-65.09,39.7-43.45-57.16-91.11-82.53-46.95-25-125.92-1.94-163.37,31.28-8.1,7.2-13.04,9.06-15.86,18.7-.74,2.58-4.23,9.9,3.02,18.16,3.55,4.09,17.92,4.1,25.19,9.94,23.16,18.61,4.18,41.38-19.34,43.85-3.57.38-5.96,3.8-4.94,7.24,10.13,34.19,55.62,28,78.49,6.6,22.52-21.04,8.87-45.36,16.84-60.47,25.07-47.68,123.37,36.06,73.21,107.69-39.63,56.46-101,50.44-157.94,32.04-.58-.19-1.17-.35-1.76-.5l-.08-.02c-4.5-1.14-8.72-3.2-12.38-6.06-18.61-14.56-45.86-38.29-52.64-60.38l-.02-.05"/>
</svg>