<?xml version="1.0" encoding="UTF-8"?>
<svg id="Layer_1" xmlns="http://www.w3.org/2000/svg" version="1.1" viewBox="0 0 800 800">
  <defs>
    <style>
      .st0 {
        fill: #5883b4;
      }
    </style>
  </defs>
  <path class="st0" d="M498.5,253.42l47.65,190.55c-38.2,9.35-89.15,15.45-146.15,15.45s-107.9-6.1-146.15-15.45l47.65-190.55c30.25,3.85,63.5,6,98.5,6s68.25-2.15,98.5-6h0ZM486.25,204.52l-37.75-151.1c-12.6-50.5-84.4-50.5-97,0l-37.75,151c26.25,3.25,55.35,5,86.25,5s60-1.8,86.25-4.9h0ZM706.05,635.17c13.4,3.32,21.58,16.87,18.26,30.28-2.06,8.33-8.26,15.03-16.41,17.72l-300,100c-5.13,1.71-10.67,1.71-15.8,0l-300-100c-13.11-4.34-20.21-18.48-15.87-31.59,2.7-8.15,9.39-14.35,17.72-16.41l119.55-29.9,28.25-112.85c43.1,10.6,98.2,16.95,158.25,16.95s115.15-6.35,158.25-16.95l28.25,112.85,119.55,29.9h0Z"/>
</svg>