<?xml version="1.0" encoding="UTF-8"?>
<svg id="Layer_1" xmlns="http://www.w3.org/2000/svg" version="1.1" viewBox="0 0 800 800">
  <defs>
    <style>
      .st0 {
        fill-rule: evenodd;
      }

      .st0, .st1 {
        fill: #5883b4;
      }
    </style>
  </defs>
  <path class="st1" d="M265.97,263.74c2.52-2.56,7.03-5.74,21.42-7.71,15.35-2.1,36.16-2.16,68.38-2.16h88.45c32.21,0,53.03.07,68.38,2.16,14.39,1.97,18.9,5.14,21.42,7.71s5.65,7.14,7.59,21.77c2.07,15.58,2.14,36.73,2.14,69.47v89.86c0,32.72-.07,53.88-2.14,69.47-1.94,14.62-5.06,19.2-7.59,21.77s-7.03,5.74-21.42,7.71c-15.33,2.1-36.16,2.17-68.38,2.17h-88.45c-32.21,0-53.03-.07-68.38-2.17-14.39-1.97-18.9-5.14-21.42-7.71s-5.65-7.14-7.59-21.77c-2.07-15.58-2.14-36.73-2.14-69.47v-89.86c0-32.72.07-53.88,2.14-69.47,1.94-14.62,5.06-19.2,7.59-21.77h0Z"/>
  <path class="st0" d="M400-.05c18.32,0,33.18,15.09,33.18,33.71v51.75c24.28.06,46.32.22,66.36.78v-52.52C499.54,15.06,514.39-.04,532.71-.04s33.18,15.09,33.18,33.71v51.72c0,1.77-.13,3.49-.39,5.19,44.5,5.55,75.34,17.06,98.79,40.88,23.45,23.82,34.78,55.15,40.24,100.36,1.67-.26,3.37-.39,5.11-.39h50.91c18.32,0,33.18,15.09,33.18,33.71s-14.85,33.71-33.18,33.71h-51.69c.56,20.36.74,42.73.78,67.41h50.91c18.32,0,33.18,15.09,33.18,33.71s-14.85,33.71-33.18,33.71h-50.92c-.06,24.66-.21,47.05-.77,67.41h51.69c18.32,0,33.18,15.09,33.18,33.71s-14.85,33.71-33.18,33.71h-50.91c-1.74,0-3.44-.13-5.11-.39-5.46,45.21-16.79,76.54-40.24,100.36-23.45,23.82-54.29,35.33-98.79,40.88.26,1.7.39,3.42.39,5.19v51.72c0,18.61-14.85,33.71-33.18,33.71s-33.18-15.09-33.18-33.71v-52.52c-20.04.57-42.07.75-66.36.8v51.72c0,18.61-14.85,33.71-33.18,33.71s-33.18-15.09-33.18-33.71v-51.73c-24.28-.06-46.32-.22-66.36-.78v52.52c0,18.61-14.85,33.71-33.18,33.71s-33.18-15.09-33.18-33.71v-51.72c0-1.77.13-3.49.39-5.19-44.5-5.55-75.34-17.06-98.79-40.88-23.45-23.82-34.78-55.15-40.24-100.36-1.67.26-3.37.39-5.11.39h-50.91c-18.32,0-33.18-15.09-33.18-33.71s14.85-33.71,33.18-33.71h51.69c-.54-20.36-.74-42.73-.78-67.41h-50.91c-18.32,0-33.18-15.09-33.18-33.71s14.85-33.71,33.18-33.71h50.94c.06-24.66.21-47.05.77-67.41h-51.69c-18.32,0-33.18-15.09-33.18-33.71s14.85-33.71,33.18-33.71h50.91c1.74,0,3.44.13,5.11.39,5.46-45.21,16.79-76.54,40.24-100.36,23.45-23.82,54.29-35.33,98.79-40.88-.26-1.7-.39-3.42-.39-5.19v-51.72C234.12,15.06,248.97-.04,267.3-.04s33.18,15.09,33.18,33.71v52.52c20.04-.55,42.07-.75,66.36-.8v-51.72C366.84,15.06,381.68-.04,400.01-.04h-.01ZM353.58,186.48c-29.4,0-54.75,0-75.03,2.77-21.74,2.97-42.59,9.67-59.5,26.84-16.9,17.17-23.49,38.36-26.42,60.44-2.72,20.62-2.72,46.36-2.72,76.22v94.31c0,29.87,0,55.62,2.72,76.22,2.92,22.08,9.51,43.27,26.42,60.44,16.9,17.17,37.76,23.87,59.5,26.84,20.28,2.77,45.63,2.77,75.03,2.77h92.83c29.4,0,54.75,0,75.03-2.77,21.74-2.97,42.59-9.67,59.5-26.84,16.9-17.17,23.49-38.36,26.42-60.44,2.72-20.62,2.72-46.36,2.72-76.22v-94.31c0-29.87,0-55.62-2.72-76.22-2.92-22.08-9.51-43.27-26.42-60.44-16.9-17.17-37.76-23.87-59.5-26.84-20.3-2.77-45.63-2.77-75.03-2.77h-92.83,0Z"/>
</svg>